<svg xmlns="http://www.w3.org/2000/svg" viewBox="0 0 1024 1024" width="32" height="32">
  <rect width="1024" height="1024" fill="#000000" rx="180"/>
  <rect x="128" y="128" width="768" height="768" rx="180" fill="none" stroke="#FFFFFF" stroke-width="12"/>
  <path d="M360 300 H440 V620 H760 V700 H360 Z" fill="#FFFFFF"/>
  <g stroke="#000000" stroke-width="6" stroke-linecap="round">
    <line x1="360" y1="340" x2="400" y2="340"/>
    <line x1="360" y1="420" x2="400" y2="420"/>
    <line x1="360" y1="500" x2="400" y2="500"/>
    <line x1="360" y1="580" x2="400" y2="580"/>
    <line x1="360" y1="380" x2="385" y2="380"/>
    <line x1="360" y1="460" x2="385" y2="460"/>
    <line x1="360" y1="540" x2="385" y2="540"/>
    <line x1="420" y1="700" x2="420" y2="660"/>
    <line x1="520" y1="700" x2="520" y2="660"/>
    <line x1="620" y1="700" x2="620" y2="660"/>
    <line x1="720" y1="700" x2="720" y2="660"/>
    <line x1="470" y1="700" x2="470" y2="675"/>
    <line x1="570" y1="700" x2="570" y2="675"/>
    <line x1="670" y1="700" x2="670" y2="675"/>
  </g>
</svg>
